<svg width="72" height="33" viewBox="0 0 72 33" fill="none" xmlns="http://www.w3.org/2000/svg">
<path fill-rule="evenodd" clip-rule="evenodd" d="M62.5587 15.1937V12.4018C62.0373 12.5321 61.4694 12.6345 60.8548 12.709C60.2403 12.7649 59.5792 12.7928 58.8716 12.7928C58.3129 12.7928 57.7357 12.7649 57.1398 12.709V13.2956C57.8846 13.2956 58.3874 13.5005 58.6481 13.9101C58.9088 14.3012 59.0392 14.9157 59.0392 15.7537V29.748C59.0392 30.4557 58.9088 30.9398 58.6481 31.2005C58.3874 31.4612 57.9405 31.5916 57.3074 31.5916V32.1782C57.6426 32.1596 58.1267 32.1316 58.7599 32.0944C59.393 32.0758 60.0262 32.0664 60.6593 32.0664C61.5718 32.0664 62.4284 32.0758 63.2291 32.0944C64.0485 32.1316 64.6816 32.1596 65.1285 32.1782V31.5916C64.3278 31.5916 63.6947 31.4426 63.2291 31.1447C62.7822 30.8653 62.5587 30.3067 62.5587 29.4687V26.423C62.8062 26.674 63.1135 26.8885 63.4805 27.0665C64.095 27.3644 64.7934 27.5134 65.5755 27.5134C66.5997 27.5134 67.5121 27.3179 68.3129 26.9268C69.1136 26.5358 69.784 25.9771 70.324 25.2508C70.8827 24.5246 71.3017 23.6587 71.581 22.6531C71.8603 21.6289 72 20.5023 72 19.2732C72 17.7276 71.7765 16.4427 71.3296 15.4185C70.9013 14.3943 70.3054 13.6215 69.5419 13.1001C68.7784 12.5601 67.9125 12.29 66.9442 12.29C65.7896 12.29 64.7934 12.6252 63.9554 13.2956C63.3479 13.7816 62.8824 14.4142 62.5587 15.1937ZM62.5587 16.2419V25.6937C62.765 25.9855 63.0257 26.2289 63.3408 26.424C63.7319 26.6661 64.1975 26.7871 64.7375 26.7871C65.6313 26.7871 66.339 26.4985 66.8604 25.9212C67.3818 25.3253 67.7449 24.4967 67.9498 23.4352C68.1732 22.3738 68.2849 21.1447 68.2849 19.7481C68.2849 18.2025 68.1825 16.9641 67.9777 16.033C67.7728 15.1019 67.4656 14.4316 67.0559 14.0219C66.6462 13.5936 66.1621 13.3794 65.6034 13.3794C64.8399 13.3794 64.1509 13.6867 63.5364 14.3012C63.0646 14.773 62.7387 15.4199 62.5587 16.2419Z" fill="#048053"/>
<path fill-rule="evenodd" clip-rule="evenodd" d="M43.2096 15.1079C43.1329 15.2348 43.0595 15.3662 42.9892 15.5023C42.4119 16.6196 42.1233 18.0907 42.1233 19.9156C42.1233 21.7406 42.4119 23.2117 42.9892 24.329C43.5665 25.4463 44.3579 26.2564 45.3635 26.7592C46.3691 27.262 47.5143 27.5134 48.7992 27.5134C50.0841 27.5134 51.2201 27.262 52.207 26.7592C53.2126 26.2564 54.004 25.4463 54.5813 24.329C55.1772 23.2117 55.4752 21.7406 55.4752 19.9156C55.4752 18.0907 55.1772 16.6196 54.5813 15.5023C54.4748 15.2962 54.3611 15.1006 54.24 14.9154L51.0427 13.8496L51.0427 14.7826C51.521 15.8958 51.7601 17.6068 51.7601 19.9156C51.7601 22.411 51.4808 24.208 50.9221 25.3067C50.3635 26.4054 49.6558 26.9547 48.7992 26.9547C47.924 26.9547 47.2071 26.4054 46.6484 25.3067C46.1084 24.208 45.8383 22.411 45.8383 19.9156C45.8383 18.6931 45.9032 17.6382 46.0328 16.7509C45.6959 16.3248 45.0828 15.8452 43.9735 15.4366C43.6871 15.331 43.4337 15.2207 43.2096 15.1079Z" fill="#FABD15"/>
<path fill-rule="evenodd" clip-rule="evenodd" d="M40.0183 12.6532C39.6458 12.4111 39.171 12.29 38.5937 12.29C37.9978 12.29 37.4391 12.439 36.9177 12.737C36.4149 13.0163 35.9773 13.3794 35.6049 13.8263C35.2511 14.2733 34.9624 14.7574 34.739 15.2788V12.3738C34.2176 12.5042 33.6403 12.6066 33.0071 12.6811C32.3926 12.737 31.7408 12.7649 31.0518 12.7649C30.4932 12.7649 29.9159 12.737 29.32 12.6811V13.2677C30.0463 13.2677 30.5397 13.4725 30.8004 13.8822C31.0798 14.2733 31.2194 14.8878 31.2194 15.7258V24.5246C31.2194 25.3067 31.0705 25.8374 30.7725 26.1168C30.4932 26.3961 30.009 26.5358 29.32 26.5358V27.1223C29.6738 27.1037 30.2045 27.0851 30.9122 27.0665C31.6384 27.0292 32.3647 27.0106 33.0909 27.0106C33.9662 27.0106 34.8041 27.0292 35.6049 27.0665C36.4242 27.0851 37.0481 27.1037 37.4764 27.1223V26.5358C36.5825 26.5358 35.9028 26.3868 35.4373 26.0888C34.9717 25.7723 34.739 25.1577 34.739 24.2453V17.3459C34.739 16.9176 34.8041 16.4706 34.9345 16.0051C35.0835 15.5396 35.2883 15.1019 35.549 14.6923C35.8097 14.2826 36.1263 13.9381 36.4987 13.6587C36.8712 13.3794 37.2808 13.2211 37.7278 13.1839C37.9885 13.1466 38.2213 13.1839 38.4261 13.2956C38.1281 13.4818 37.8581 13.7332 37.616 14.0498C37.3926 14.3664 37.2808 14.7574 37.2808 15.223C37.2808 15.7444 37.4578 16.1541 37.8116 16.452C38.1654 16.75 38.6216 16.8989 39.1803 16.8989C39.7762 16.8989 40.251 16.6941 40.6048 16.2844C40.9773 15.8747 41.1635 15.3626 41.1635 14.7481C41.1635 14.3384 41.0704 13.9474 40.8842 13.5749C40.698 13.2025 40.4093 12.8952 40.0183 12.6532Z" fill="#048053"/>
<path fill-rule="evenodd" clip-rule="evenodd" d="M16.4173 32.0665C17.3111 32.2713 18.3074 32.3737 19.4061 32.3737C21.2124 32.3737 22.6928 32.1316 23.8474 31.6475C25.0206 31.1819 25.8958 30.5581 26.4731 29.776C27.0504 29.0125 27.339 28.1838 27.339 27.29C27.339 26.4334 27.1155 25.7444 26.6686 25.2229C26.2217 24.7015 25.6165 24.3198 24.853 24.0777C24.1081 23.8356 23.2515 23.7146 22.2832 23.7146H19.1268C18.3074 23.7146 17.8977 23.4166 17.8977 22.8207C17.8977 22.3924 18.0746 22.0386 18.4284 21.7593C18.7052 21.5517 19.0076 21.3545 19.3357 21.1675C19.4419 21.171 19.5491 21.1727 19.6575 21.1727C20.6817 21.1727 21.5942 21.0237 22.3949 20.7258C23.1956 20.4092 23.8288 19.925 24.2943 19.2733C24.7599 18.6029 24.9926 17.7556 24.9926 16.7314C24.9926 15.7072 24.7599 14.8692 24.2943 14.2174C24.2637 14.1745 24.2323 14.1323 24.2002 14.0909C24.3937 13.7907 24.602 13.5349 24.825 13.3236C25.1091 13.0545 25.5131 12.8034 26.0371 12.5704C25.7929 13.1371 25.6868 13.6209 25.7189 14.0219C25.7561 14.4688 25.9051 14.804 26.1658 15.0275C26.4265 15.2323 26.7152 15.3347 27.0317 15.3347C27.3855 15.3347 27.7114 15.2044 28.0094 14.9437C28.3073 14.683 28.4563 14.2733 28.4563 13.7146C28.4563 13.1746 28.298 12.7556 27.9814 12.4577C27.6835 12.1597 27.2645 12.0107 26.7245 12.0107C26.0168 12.0107 25.3465 12.2528 24.7133 12.737C24.3507 13.0036 24.0462 13.3069 23.7996 13.6467C23.4094 13.2748 22.9411 12.9809 22.3949 12.7649C21.5942 12.4484 20.6817 12.2901 19.6575 12.2901C18.6519 12.2901 17.7394 12.4484 16.9201 12.7649C16.1193 13.0815 15.4862 13.5657 15.0206 14.2174C14.5551 14.8692 14.3223 15.7072 14.3223 16.7314C14.3223 17.7556 14.5551 18.6029 15.0206 19.2733C15.4862 19.925 16.1193 20.4092 16.9201 20.7258C17.4323 20.912 17.981 21.0401 18.566 21.1099C17.7056 21.548 17.0452 21.9973 16.5849 22.4576C15.989 23.0349 15.691 23.6866 15.691 24.4129C15.691 25.0088 15.8586 25.4743 16.1938 25.8095C16.529 26.1447 16.9759 26.3868 17.5346 26.5358C18.1119 26.6848 18.745 26.7592 19.434 26.7592H21.2776C22.5252 26.7592 23.3539 26.9548 23.7636 27.3458C24.1919 27.7369 24.4061 28.2211 24.4061 28.7983C24.4061 29.4873 24.1919 30.0646 23.7636 30.5302C23.3353 30.9957 22.7673 31.3402 22.0597 31.5637C21.3521 31.7871 20.5793 31.8989 19.7413 31.8989C18.5122 31.8989 17.5253 31.6754 16.7804 31.2285C16.0541 30.8002 15.691 30.1857 15.691 29.3849C15.691 28.9939 15.7841 28.6214 15.9704 28.2676C16.1566 27.9138 16.4266 27.6345 16.7804 27.4296L16.5849 26.9827C15.5793 27.2248 14.8158 27.5786 14.2944 28.0442C13.773 28.5097 13.5123 29.0404 13.5123 29.6363C13.5123 30.2508 13.773 30.7536 14.2944 31.1447C14.8158 31.5544 15.5234 31.8616 16.4173 32.0665ZM20.9703 19.8319C20.6537 20.3906 20.2161 20.6699 19.6575 20.6699C19.0988 20.6699 18.6519 20.3906 18.3167 19.8319C18.0001 19.2546 17.8418 18.2211 17.8418 16.7314C17.8418 15.2416 18.0001 14.2174 18.3167 13.6588C18.6519 13.0815 19.0988 12.7929 19.6575 12.7929C20.2161 12.7929 20.6537 13.0815 20.9703 13.6588C21.3055 14.2174 21.4731 15.2416 21.4731 16.7314C21.4731 18.2211 21.3055 19.2546 20.9703 19.8319Z" fill="#048053"/>
<path fill-rule="evenodd" clip-rule="evenodd" d="M1.67597 26.8709C2.23462 27.1689 2.91432 27.3179 3.71506 27.3179C4.62753 27.3179 5.40965 27.113 6.06141 26.7033C6.71318 26.2937 7.26252 25.7164 7.70945 24.9715C7.72807 25.4557 7.82118 25.8747 7.98877 26.2285C8.17499 26.5823 8.45432 26.8523 8.82676 27.0385C9.21781 27.2248 9.73923 27.3179 10.391 27.3179C11.0241 27.3179 11.5642 27.2248 12.0111 27.0385C12.458 26.8523 12.8863 26.6009 13.296 26.2844L12.9887 25.8095C12.7839 25.9771 12.5977 26.1074 12.4301 26.2006C12.2625 26.2937 12.0856 26.3402 11.8994 26.3402C11.6573 26.3402 11.4804 26.2471 11.3686 26.0609C11.2569 25.8561 11.201 25.5209 11.201 25.0553V17.4017C11.201 16.4893 11.1359 15.7165 11.0055 15.0833C10.8752 14.4502 10.5865 13.9194 10.1396 13.4911C9.69267 13.0442 9.15264 12.737 8.51949 12.5694C7.88635 12.3831 7.1601 12.29 6.34074 12.29C5.48413 12.29 4.69271 12.3831 3.96645 12.5694C3.2402 12.7556 2.6443 13.007 2.17876 13.3236C1.71321 13.6029 1.35008 13.9195 1.08938 14.2733C0.828672 14.6085 0.698319 15.0368 0.698319 15.5582C0.698319 16.0796 0.856605 16.5358 1.17318 16.9269C1.48975 17.3179 1.95529 17.5135 2.56981 17.5135C3.14709 17.5135 3.62195 17.3552 3.99439 17.0386C4.38545 16.7034 4.58097 16.2472 4.58097 15.6699C4.58097 15.1671 4.44131 14.7388 4.16198 14.385C3.90128 14.0312 3.52884 13.7891 3.04467 13.6587C3.324 13.3422 3.67781 13.128 4.10612 13.0163C4.53442 12.9046 4.9441 12.8487 5.33516 12.8487C5.85657 12.8487 6.28487 12.9511 6.62007 13.156C6.97388 13.3422 7.23459 13.6308 7.40218 14.0219C7.5884 14.3943 7.68151 14.8785 7.68151 15.4744V17.5135C7.68151 17.9418 7.49529 18.2863 7.12286 18.547C6.75042 18.8077 6.27556 19.0405 5.69829 19.2453C5.12101 19.4315 4.50649 19.6364 3.85472 19.8598C3.20296 20.0647 2.57913 20.3254 1.98323 20.6419C1.40595 20.9399 0.931092 21.3496 0.558655 21.871C0.186218 22.3738 0 23.0255 0 23.8263C0 24.478 0.139664 25.0739 0.418992 25.614C0.698319 26.1354 1.11731 26.5544 1.67597 26.8709ZM6.62007 25.3905C6.24763 25.6326 5.83795 25.7536 5.39102 25.7536C4.81375 25.7536 4.3482 25.5674 3.99439 25.195C3.64057 24.8039 3.46366 24.2453 3.46366 23.519C3.46366 22.8672 3.57539 22.3365 3.79886 21.9268C4.04094 21.4985 4.32958 21.1447 4.66477 20.8654C5.01859 20.5674 5.39102 20.3067 5.78208 20.0833C6.17314 19.8598 6.53627 19.6364 6.87146 19.4129C7.22528 19.1894 7.49529 18.938 7.68151 18.6587V24.3011C7.36494 24.7853 7.01113 25.1484 6.62007 25.3905Z" fill="#048053"/>
<path d="M35.1869 8.3731L32.0581 8.25001C32.6702 7.33937 34.5272 6.64087 35.3792 6.40545C35.7065 6.36303 36.4045 6.48038 36.578 7.2892C36.7515 8.09802 35.7229 8.34881 35.1869 8.3731Z" fill="#FABD15"/>
<path d="M37.3759 6.50811C37.0115 5.67703 35.7071 5.24098 35.1005 5.12684C37.091 4.48483 38.7027 4.85875 39.6037 5.74497C40.3245 6.45394 39.733 6.97517 39.3472 7.14716C38.8419 7.28042 37.7402 7.33918 37.3759 6.50811Z" fill="#FABD15"/>
<path d="M41.2228 7.01248C41.0362 6.06078 40.2833 5.07407 39.8627 4.64065C41.2649 4.89715 42.0726 5.30752 42.4322 5.57264C42.9265 5.93702 43.9932 7.01936 43.6736 8.00504C43.3541 8.99071 41.452 8.18173 41.2228 7.01248Z" fill="#FABD15"/>
<path d="M37.1218 8.20813C36.8855 8.4484 35.4324 9.24484 34.6616 9.68812C34.9607 9.83459 37.6693 9.57389 38.0265 9.54115C38.3837 9.50841 40.0195 9.197 39.6537 8.18721C39.268 7.12259 37.4172 7.9078 37.1218 8.20813Z" fill="#FABD15"/>
<path d="M41.2085 8.88928C40.4397 9.58078 39.3302 9.89776 38.5375 10.1029L41.1034 10.5881C42.3264 10.7865 43.3664 10.48 43.5092 9.73414C43.6748 8.86927 41.6757 8.46906 41.2085 8.88928Z" fill="#FABD15"/>
<path d="M45.064 10.4362C44.1741 10.8904 43.312 11.106 42.301 11.3229C42.5655 11.6067 43.6778 12.1158 44.7519 12.3155C45.4372 12.3396 46.8295 12.4894 47.01 11.6117C47.1818 10.7762 45.5423 10.1921 45.064 10.4362Z" fill="#FABD15"/>
<path d="M45.4077 8.7652C45.179 8.04322 44.8658 6.87312 44.3733 6.15234C44.9315 6.41583 46.1487 6.88764 46.8278 7.5917C47.9395 8.74427 48.0407 9.71587 47.6528 10.0871C47.1503 10.5679 45.8971 10.3102 45.4077 8.7652Z" fill="#FABD15"/>
<path d="M44.8767 12.9996C44.8924 13.0086 44.9085 13.0177 44.925 13.027C45.3827 13.2295 47.1847 12.7938 47.5841 12.59C47.9994 12.378 49.6387 13.0992 49.2637 13.9761C49.0591 14.4544 48.3447 14.5199 47.6885 14.4062C47.3753 14.3519 45.75 13.4941 44.925 13.027C44.9067 13.0189 44.8905 13.0098 44.8767 12.9996Z" fill="#FABD15"/>
<path d="M48.6347 9.95986C48.8138 9.54126 48.7709 8.41965 48.7071 7.90384C48.7273 7.94339 49.2326 8.28354 49.9412 9.44265C50.8471 10.9246 50.6647 11.6907 50.4997 12.1488C50.3533 12.4479 49.8322 12.8335 49.1618 12.4578C48.3238 11.9881 48.4302 10.4382 48.6347 9.95986Z" fill="#FABD15"/>
<path d="M50.7191 13.4577L50.276 13.9082L53.0129 17.073L53.6049 16.6212L50.7191 13.4577Z" fill="#FABD15"/>
</svg>
