<svg width="16" height="16" viewBox="0 0 16 16" fill="none" xmlns="http://www.w3.org/2000/svg">
<path fill-rule="evenodd" clip-rule="evenodd" d="M1.90448 1.16951L1.15472 1.90428L2.68423 3.4188L3.41899 2.69903L1.90448 1.16951ZM2.41431 5.84805C2.41431 6.34289 2.59426 6.77776 2.86417 7.13764C2.99913 7.31759 3.13408 7.43755 3.29903 7.5875C3.43399 7.72246 3.64392 7.9024 3.73389 8.03736L8.0525 3.73371C7.61764 3.4338 7.40771 2.89397 6.61296 2.56407C5.96817 2.29416 5.15843 2.44411 4.61861 2.86398L3.31402 4.15357C3.0891 4.3785 2.89416 4.54345 2.71422 4.82836C2.54927 5.09828 2.41431 5.51815 2.41431 5.84805ZM8.3524 4.78338C8.14247 4.91834 7.96253 5.18825 7.82757 5.30821L7.64763 5.50315C7.7376 5.63811 8.42738 6.2979 8.63731 6.50784C8.75727 6.6278 8.84724 6.74776 9.08717 6.74776C9.47704 6.74776 9.88191 6.26791 9.40207 5.80306C9.17714 5.57813 8.50235 4.87335 8.3674 4.78338H8.3524ZM5.50332 7.63249L4.78355 8.33727C4.88852 8.48722 5.5633 9.13202 5.78823 9.35695C6.40303 9.98675 6.94286 9.25198 6.70293 8.81712C6.59797 8.62218 5.51832 7.63249 5.51832 7.63249H5.50332ZM4.09377 9.04205C3.79387 9.23699 3.64392 9.29697 3.31402 8.96707C3.19406 8.84711 3.0891 8.74214 2.96914 8.62218C2.05443 7.70746 1.45462 7.2576 1.45462 5.72808C1.45462 5.42818 1.54459 5.06829 1.63457 4.84336C1.69455 4.69341 1.73953 4.60343 1.79951 4.48347C1.85949 4.3785 1.96446 4.24355 1.99445 4.13858L0.959783 3.08891C0.74985 2.87897 9.15527e-05 2.21918 9.15527e-05 1.94926C9.15527e-05 1.60437 0.150043 1.52939 0.359976 1.31946C0.524923 1.15451 0.659879 1.01955 0.824826 0.854606C0.989773 0.689657 1.12473 0.554699 1.28968 0.38975C1.49961 0.179816 1.57458 0.0298634 1.91947 0.0298634C2.12941 0.0298634 2.39932 0.329769 2.51928 0.464727L4.10877 2.03924C4.21374 2.00924 4.34869 1.90428 4.45366 1.8443C5.42834 1.33446 6.58297 1.39444 7.49768 1.99425C7.90255 2.24917 8.53235 2.93895 8.90722 3.32883C9.2821 3.70372 9.20713 3.77869 9.01219 4.16857C9.17714 4.27354 10.1818 5.30821 10.2868 5.47316C10.6767 6.07298 10.5567 6.98769 9.94189 7.43755C9.612 7.67747 9.17714 7.81243 8.6823 7.69247C7.91754 7.51253 7.16778 6.3279 6.88288 6.25292C6.8229 6.2979 6.85289 6.28291 6.8079 6.3279C6.76291 6.37288 6.74792 6.37288 6.70293 6.41787L6.52299 6.61281C6.43302 6.68778 6.25308 6.91271 6.16311 6.9427C6.47801 7.42255 7.45269 8.00737 7.63264 8.72715C7.88755 9.71684 7.09281 10.5716 6.34305 10.5716C5.92318 10.5716 5.78823 10.5866 5.39835 10.3616C5.11345 10.1967 4.30371 9.23699 4.06378 9.07204L4.09377 9.04205Z" fill="white"/>
<path fill-rule="evenodd" clip-rule="evenodd" d="M12.2511 7.97751L7.97751 12.2662C8.05249 12.3711 8.69728 13.0159 8.83224 13.1209C9.59699 13.7207 10.6167 13.7657 11.3964 13.1509C11.5464 13.0309 11.6963 12.851 11.8313 12.716L13.1209 11.4114C13.3158 11.1565 13.4807 10.8416 13.5407 10.5117C13.6157 10.1068 13.6007 9.76195 13.4358 9.40206C13.3308 9.16214 13.2558 9.02718 13.1209 8.84724C13.0159 8.71228 12.3711 8.05248 12.2511 7.97751ZM13.3158 12.5961L12.641 13.2709C12.596 13.3158 12.626 13.2709 12.596 13.3158L14.0955 14.8454L14.8453 14.1106L13.3158 12.5961ZM11.8763 14.0056C11.7713 14.0356 11.6363 14.1406 11.5314 14.2006C11.4114 14.2605 11.2914 14.3205 11.1415 14.3805C10.1218 14.7554 8.81724 14.4855 8.09748 13.7657L7.06281 12.731C6.53798 12.2062 6.86787 12.0262 7.37771 11.5314L11.8163 7.09278C12.3411 6.56795 12.5211 6.89785 13.0159 7.40769C13.9306 8.3224 14.5304 8.77226 14.5304 10.3018C14.5304 10.6017 14.4404 10.9616 14.3505 11.1865C14.2905 11.3365 14.2455 11.4264 14.1855 11.5464C14.1555 11.6064 14.1405 11.6514 14.0955 11.7113C14.0506 11.7863 14.0206 11.8013 13.9906 11.8913C14.2905 12.3261 15.9849 13.7057 15.9849 14.0806C15.9849 14.4255 15.835 14.5005 15.6251 14.7104L14.6954 15.6401C14.4854 15.85 14.4104 16 14.0656 16C13.7956 16 13.1359 15.2352 12.9259 15.0403L11.8763 14.0056Z" fill="white"/>
<path fill-rule="evenodd" clip-rule="evenodd" d="M10.0318 1.9793C10.0318 1.70939 9.98686 1.3495 10.1518 1.15456C10.3318 0.944626 11.0065 0.839659 11.0065 1.63441C11.0065 1.94931 11.0365 2.42916 10.5567 2.45915C10.2868 2.47415 10.0318 2.27921 10.0318 1.9793Z" fill="white"/>
<path fill-rule="evenodd" clip-rule="evenodd" d="M4.99347 14.4407C4.99347 14.1408 4.94848 13.5859 5.44332 13.5559C6.17808 13.496 5.98315 14.6806 5.84819 14.8605C5.63826 15.1154 4.99347 15.1005 4.99347 14.4407Z" fill="white"/>
<path fill-rule="evenodd" clip-rule="evenodd" d="M13.5557 5.56304C13.5557 5.3981 13.5407 5.23315 13.7207 5.11318C13.8406 5.02321 14.9953 4.76829 14.9953 5.53305C14.9953 5.77298 14.7703 5.96792 14.5004 5.96792C14.2155 5.96792 13.5707 6.04289 13.5707 5.56304H13.5557Z" fill="white"/>
<path fill-rule="evenodd" clip-rule="evenodd" d="M1.00476 10.4967C1.00476 9.95692 1.60457 10.0319 1.97945 10.0319C2.51927 10.0319 2.56426 10.6917 2.27935 10.9016C2.1294 11.0216 1.00476 11.2165 1.00476 10.5117V10.4967Z" fill="white"/>
<path fill-rule="evenodd" clip-rule="evenodd" d="M12.5211 3.07388C12.5211 2.78897 12.5361 2.78897 12.761 2.56404C12.8659 2.45907 12.9859 2.30912 13.1059 2.24914C13.5257 2.00922 14.1405 2.53405 13.6157 3.05889C13.3758 3.28382 13.1808 3.59872 12.806 3.44877C12.686 3.38878 12.5211 3.25383 12.5211 3.07388Z" fill="white"/>
<path fill-rule="evenodd" clip-rule="evenodd" d="M2.93914 12.5363C3.31402 12.5363 3.46397 12.7012 3.46397 13.0611C3.46397 13.2111 2.80419 14.1708 2.30935 13.6759C2.09941 13.466 2.1294 13.1811 2.32434 12.9861C2.4593 12.8512 2.71422 12.5213 2.92415 12.5213L2.93914 12.5363Z" fill="white"/>
</svg>
