<svg width="14" height="14" viewBox="0 0 14 14" fill="none" xmlns="http://www.w3.org/2000/svg">
<path fill-rule="evenodd" clip-rule="evenodd" d="M7.57098 1.04352V7.13775C7.57098 7.70878 8.03371 8.18135 8.61458 8.18135H12.9662C13.5175 8.18135 14 7.73832 14.0098 7.22636V0.964759C14.0098 0.472494 13.5471 0.00976562 13.0548 0.00976562H8.53582C8.28969 0.00976562 8.00418 0.157445 7.86634 0.324815C7.70882 0.511875 7.58083 0.718626 7.58083 1.05337L7.57098 1.04352Z" fill="#047F53"/>
<path fill-rule="evenodd" clip-rule="evenodd" d="M-2.37804e-05 13.0453C-2.37804e-05 13.5376 0.462705 14.0003 0.954969 14.0003H5.46411C5.95638 14.0003 6.4191 13.5277 6.4191 12.9567V6.86245C6.4191 6.29142 5.95638 5.81885 5.3755 5.81885H1.02389C0.462705 5.81885 -0.00986907 6.27173 -0.0197144 6.77384V13.0354L-2.37804e-05 13.0453Z" fill="#047F53"/>
<path fill-rule="evenodd" clip-rule="evenodd" d="M7.571 10.3673V12.9664C7.571 13.1239 7.60054 13.2716 7.64976 13.3799C7.79744 13.7146 8.12234 14.01 8.526 14.01H13.045C13.5372 14.01 14 13.5473 14 13.055V10.2885C14 9.76669 13.5077 9.3335 12.9564 9.3335H8.60476C8.03373 9.3335 7.56116 9.79622 7.56116 10.3771L7.571 10.3673Z" fill="#047F53"/>
<path fill-rule="evenodd" clip-rule="evenodd" d="M0 3.7216C0 4.21386 0.472574 4.67659 1.0436 4.67659H5.39522C5.96624 4.67659 6.43882 4.21386 6.43882 3.63299V1.03383C6.43882 0.728631 6.31083 0.482499 6.173 0.315129C6.03516 0.147759 5.72996 -0.00976562 5.48383 -0.00976562H0.964838C0.472574 -0.00976562 0.00984529 0.452963 0.00984529 0.945227V3.71175L0 3.7216Z" fill="#047F53"/>
</svg>
