<svg width="431" height="194" viewBox="0 0 431 194" fill="none" xmlns="http://www.w3.org/2000/svg">
<path fill-rule="evenodd" clip-rule="evenodd" d="M373.673 90.7555V74.0788C370.559 74.8574 367.166 75.4692 363.496 75.9141C359.825 76.2478 355.876 76.4146 351.65 76.4146C348.313 76.4146 344.864 76.2478 341.305 75.9141V79.4179C345.754 79.4179 348.758 80.6414 350.315 83.0885C351.872 85.4244 352.651 89.095 352.651 94.1004V177.691C352.651 181.917 351.872 184.81 350.315 186.367C348.758 187.924 346.088 188.703 342.306 188.703V192.206C344.308 192.095 347.2 191.928 350.982 191.706C354.764 191.595 358.546 191.539 362.328 191.539C367.778 191.539 372.895 191.595 377.678 191.706C382.572 191.928 386.354 192.095 389.023 192.206V188.703C384.24 188.703 380.458 187.813 377.678 186.033C375.008 184.365 373.673 181.028 373.673 176.022V157.83C375.151 159.329 376.987 160.61 379.179 161.673C382.85 163.453 387.021 164.343 391.693 164.343C397.811 164.343 403.261 163.175 408.044 160.839C412.827 158.503 416.831 155.166 420.057 150.828C423.394 146.49 425.896 141.318 427.565 135.312C429.233 129.194 430.068 122.464 430.068 115.123C430.068 105.891 428.733 98.2159 426.063 92.0982C423.505 85.9805 419.946 81.3644 415.385 78.2499C410.825 75.0242 405.652 73.4114 399.868 73.4114C392.972 73.4114 387.021 75.4135 382.016 79.4179C378.387 82.3204 375.607 86.0996 373.673 90.7555ZM373.673 97.0163V153.474C374.906 155.217 376.463 156.671 378.345 157.836C380.681 159.282 383.462 160.005 386.687 160.005C392.027 160.005 396.253 158.281 399.368 154.833C402.482 151.273 404.651 146.323 405.875 139.983C407.21 133.643 407.877 126.302 407.877 117.96C407.877 108.727 407.265 101.33 406.042 95.7689C404.818 90.2073 402.983 86.203 400.536 83.7559C398.089 81.1976 395.197 79.9184 391.86 79.9184C387.299 79.9184 383.184 81.7537 379.513 85.4244C376.695 88.2425 374.748 92.1064 373.673 97.0163Z" fill="#048053"/>
<path fill-rule="evenodd" clip-rule="evenodd" d="M258.098 90.2431C257.64 91.0011 257.201 91.7864 256.781 92.5988C253.333 99.2727 251.609 108.06 251.609 118.961C251.609 129.861 253.333 138.649 256.781 145.322C260.23 151.996 264.957 156.835 270.963 159.838C276.97 162.841 283.811 164.343 291.486 164.343C299.161 164.343 305.946 162.841 311.841 159.838C317.847 156.835 322.575 151.996 326.023 145.322C329.582 138.649 331.362 129.861 331.362 118.961C331.362 108.06 329.582 99.2727 326.023 92.5988C325.387 91.3679 324.707 90.1995 323.984 89.0935L304.886 82.7273L304.886 88.3001C307.743 94.9492 309.171 105.169 309.171 118.961C309.171 133.866 307.503 144.599 304.166 151.162C300.829 157.725 296.602 161.006 291.486 161.006C286.258 161.006 281.975 157.725 278.638 151.162C275.413 144.599 273.8 133.866 273.8 118.961C273.8 111.658 274.187 105.357 274.961 100.057C272.949 97.512 269.287 94.6475 262.661 92.2064C260.95 91.5759 259.436 90.9172 258.098 90.2431Z" fill="#FABD15"/>
<path fill-rule="evenodd" clip-rule="evenodd" d="M239.036 75.5804C236.811 74.1344 233.975 73.4114 230.526 73.4114C226.967 73.4114 223.63 74.3012 220.516 76.0809C217.512 77.7494 214.898 79.9184 212.674 82.588C210.56 85.2575 208.836 88.1495 207.502 91.264V73.9119C204.387 74.6905 200.939 75.3023 197.157 75.7472C193.486 76.0809 189.593 76.2478 185.478 76.2478C182.141 76.2478 178.693 76.0809 175.133 75.7472V79.251C179.471 79.251 182.419 80.4746 183.976 82.9216C185.645 85.2575 186.479 88.9281 186.479 93.9335V146.49C186.479 151.162 185.589 154.332 183.809 156.001C182.141 157.669 179.249 158.503 175.133 158.503V162.007C177.247 161.896 180.417 161.785 184.644 161.673C188.982 161.451 193.32 161.34 197.658 161.34C202.886 161.34 207.891 161.451 212.674 161.673C217.568 161.785 221.294 161.896 223.853 162.007V158.503C218.513 158.503 214.454 157.613 211.673 155.834C208.892 153.943 207.502 150.272 207.502 144.822V103.611C207.502 101.052 207.891 98.3828 208.67 95.602C209.559 92.8212 210.783 90.2073 212.34 87.7602C213.897 85.3131 215.788 83.2553 218.013 81.5869C220.238 79.9184 222.685 78.9729 225.354 78.7505C226.911 78.528 228.302 78.7505 229.525 79.4179C227.746 80.5302 226.133 82.0318 224.687 83.9227C223.352 85.8137 222.685 88.1495 222.685 90.9303C222.685 94.0448 223.741 96.4919 225.855 98.2716C227.968 100.051 230.693 100.941 234.03 100.941C237.59 100.941 240.426 99.7176 242.539 97.2705C244.764 94.8234 245.876 91.7645 245.876 88.0939C245.876 85.6468 245.32 83.311 244.208 81.0863C243.096 78.8617 241.372 77.0264 239.036 75.5804Z" fill="#048053"/>
<path fill-rule="evenodd" clip-rule="evenodd" d="M98.063 191.539C103.402 192.762 109.353 193.374 115.916 193.374C126.705 193.374 135.548 191.928 142.444 189.036C149.452 186.255 154.68 182.529 158.128 177.857C161.576 173.297 163.3 168.347 163.3 163.008C163.3 157.891 161.965 153.775 159.296 150.661C156.626 147.547 153.011 145.266 148.451 143.82C144.002 142.374 138.885 141.651 133.101 141.651H114.247C109.353 141.651 106.906 139.872 106.906 136.312C106.906 133.754 107.963 131.64 110.076 129.972C111.729 128.732 113.535 127.554 115.495 126.437C116.129 126.458 116.77 126.468 117.417 126.468C123.535 126.468 128.985 125.578 133.768 123.799C138.551 121.908 142.333 119.016 145.114 115.123C147.895 111.118 149.285 106.057 149.285 99.9396C149.285 93.8218 147.895 88.8164 145.114 84.9233C144.931 84.667 144.743 84.4151 144.552 84.1675C145.707 82.3744 146.951 80.8467 148.284 79.5842C149.98 77.9771 152.394 76.4774 155.524 75.0852C154.065 78.4703 153.431 81.3604 153.623 83.7554C153.846 86.425 154.735 88.4271 156.293 89.7619C157.85 90.9854 159.574 91.5972 161.465 91.5972C163.578 91.5972 165.525 90.8186 167.305 89.2614C169.084 87.7041 169.974 85.257 169.974 81.9201C169.974 78.6944 169.029 76.1917 167.138 74.412C165.358 72.6323 162.855 71.7424 159.63 71.7424C155.403 71.7424 151.398 73.1884 147.617 76.0804C145.451 77.6729 143.632 79.4843 142.159 81.5145C139.828 79.2929 137.031 77.5372 133.768 76.2473C128.985 74.3564 123.535 73.4109 117.417 73.4109C111.411 73.4109 105.96 74.3564 101.066 76.2473C96.2833 78.1382 92.5015 81.0302 89.7207 84.9233C86.9399 88.8164 85.5495 93.8218 85.5495 99.9396C85.5495 106.057 86.9399 111.118 89.7207 115.123C92.5015 119.016 96.2833 121.908 101.066 123.799C104.126 124.911 107.403 125.676 110.898 126.093C105.758 128.71 101.814 131.393 99.0641 134.143C95.5047 137.591 93.725 141.484 93.725 145.822C93.725 149.382 94.7261 152.163 96.7282 154.165C98.7304 156.167 101.4 157.613 104.737 158.503C108.185 159.393 111.967 159.838 116.082 159.838H127.094C134.547 159.838 139.497 161.006 141.944 163.341C144.502 165.677 145.781 168.569 145.781 172.017C145.781 176.133 144.502 179.581 141.944 182.362C139.385 185.143 135.993 187.2 131.766 188.535C127.539 189.87 122.923 190.537 117.918 190.537C110.577 190.537 104.681 189.203 100.232 186.533C95.894 183.975 93.725 180.304 93.725 175.521C93.725 173.185 94.2812 170.961 95.3935 168.847C96.5058 166.734 98.1186 165.065 100.232 163.842L99.0641 161.172C93.0576 162.618 88.4971 164.732 85.3826 167.513C82.2682 170.293 80.7109 173.463 80.7109 177.023C80.7109 180.693 82.2682 183.697 85.3826 186.033C88.4971 188.48 92.7239 190.315 98.063 191.539ZM125.259 118.46C123.368 121.797 120.754 123.465 117.417 123.465C114.08 123.465 111.411 121.797 109.409 118.46C107.518 115.011 106.572 108.838 106.572 99.9396C106.572 91.0411 107.518 84.9233 109.409 81.5864C111.411 78.1382 114.08 76.4141 117.417 76.4141C120.754 76.4141 123.368 78.1382 125.259 81.5864C127.261 84.9233 128.262 91.0411 128.262 99.9396C128.262 108.838 127.261 115.011 125.259 118.46Z" fill="#048053"/>
<path fill-rule="evenodd" clip-rule="evenodd" d="M10.0108 160.505C13.3478 162.285 17.4077 163.175 22.1906 163.175C27.641 163.175 32.3127 161.951 36.2058 159.504C40.0989 157.057 43.3802 153.609 46.0498 149.16C46.161 152.052 46.7171 154.555 47.7182 156.668C48.8305 158.781 50.499 160.394 52.7236 161.507C55.0595 162.619 58.174 163.175 62.0671 163.175C65.8489 163.175 69.0746 162.619 71.7442 161.507C74.4137 160.394 76.9721 158.893 79.4191 157.002L77.5838 154.165C76.3603 155.166 75.248 155.945 74.2469 156.501C73.2458 157.057 72.1891 157.335 71.0768 157.335C69.6308 157.335 68.5741 156.779 67.9067 155.667C67.2393 154.443 66.9056 152.441 66.9056 149.66V103.944C66.9056 98.494 66.5163 93.8779 65.7377 90.0961C64.9591 86.3142 63.235 83.1441 60.5654 80.5858C57.8959 77.9162 54.6702 76.0809 50.8883 75.0798C47.1064 73.9675 42.7684 73.4114 37.8742 73.4114C32.7576 73.4114 28.0303 73.9675 23.6923 75.0798C19.3542 76.1922 15.7948 77.6938 13.0141 79.5847C10.2333 81.2532 8.06427 83.1441 6.50703 85.2575C4.94979 87.2597 4.17117 89.818 4.17117 92.9325C4.17117 96.0469 5.11664 98.7721 7.00757 101.108C8.8985 103.444 11.6793 104.612 15.3499 104.612C18.7981 104.612 21.6345 103.666 23.8591 101.775C26.195 99.7732 27.3629 97.048 27.3629 93.5998C27.3629 90.5966 26.5287 88.0383 24.8602 85.9249C23.303 83.8115 21.0783 82.3655 18.1863 81.5869C19.8548 79.6959 21.9682 78.4168 24.5265 77.7494C27.0848 77.082 29.5319 76.7483 31.8678 76.7483C34.9822 76.7483 37.5406 77.3601 39.5427 78.5836C41.6561 79.6959 43.2134 81.42 44.2144 83.7559C45.3267 85.9805 45.8829 88.8725 45.8829 92.4319V104.612C45.8829 107.17 44.7706 109.228 42.546 110.785C40.3213 112.342 37.4849 113.733 34.0368 114.956C30.5886 116.069 26.918 117.292 23.0249 118.627C19.1318 119.85 15.4055 121.408 11.8461 123.299C8.39796 125.078 5.56156 127.525 3.33694 130.64C1.11231 133.643 0 137.536 0 142.319C0 146.212 0.834235 149.772 2.5027 152.997C4.17117 156.112 6.67388 158.615 10.0108 160.505ZM39.5427 151.663C37.3181 153.109 34.871 153.832 32.2015 153.832C28.7533 153.832 25.9725 152.719 23.8591 150.495C21.7457 148.159 20.689 144.822 20.689 140.484C20.689 136.591 21.3564 133.421 22.6912 130.974C24.1372 128.415 25.8613 126.302 27.8634 124.633C29.9768 122.854 32.2015 121.296 34.5373 119.962C36.8732 118.627 39.0422 117.292 41.0443 115.957C43.1577 114.623 44.7706 113.121 45.8829 111.452V145.156C43.992 148.048 41.8786 150.217 39.5427 151.663Z" fill="#048053"/>
<path d="M210.177 50.0149L191.488 49.2797C195.144 43.8403 206.236 39.668 211.325 38.2618C213.281 38.0084 217.45 38.7094 218.486 43.5406C219.523 48.3718 213.379 49.8698 210.177 50.0149Z" fill="#FABD15"/>
<path d="M223.252 38.875C221.076 33.9109 213.285 31.3062 209.661 30.6245C221.551 26.7896 231.178 29.0231 236.559 34.3167C240.865 38.5515 237.332 41.6648 235.027 42.6922C232.009 43.4881 225.428 43.8391 223.252 38.875Z" fill="#FABD15"/>
<path d="M246.23 41.8877C245.116 36.203 240.619 30.3093 238.106 27.7203C246.482 29.2525 251.306 31.7037 253.454 33.2873C256.407 35.4638 262.778 41.9288 260.87 47.8164C258.961 53.704 247.6 48.8718 246.23 41.8877Z" fill="#FABD15"/>
<path d="M221.734 49.0295C220.323 50.4647 211.644 55.222 207.039 57.8697C208.826 58.7446 225.005 57.1874 227.138 56.9918C229.272 56.7963 239.043 54.9362 236.858 48.9045C234.554 42.5454 223.499 47.2356 221.734 49.0295Z" fill="#FABD15"/>
<path d="M246.145 53.0981C241.553 57.2286 234.926 59.122 230.191 60.3473L245.517 63.2455C252.822 64.4306 259.035 62.6 259.887 58.1446C260.876 52.9786 248.936 50.5881 246.145 53.0981Z" fill="#FABD15"/>
<path d="M269.175 62.3381C263.859 65.0511 258.71 66.3392 252.671 67.6346C254.25 69.3298 260.895 72.3708 267.31 73.5634C271.404 73.7074 279.72 74.6023 280.798 69.3594C281.825 64.3688 272.032 60.88 269.175 62.3381Z" fill="#FABD15"/>
<path d="M271.227 52.357C269.861 48.0445 267.99 41.0553 265.049 36.7499C268.383 38.3238 275.654 41.142 279.71 45.3474C286.351 52.2319 286.955 58.0355 284.638 60.2531C281.636 63.1248 274.151 61.5853 271.227 52.357Z" fill="#FABD15"/>
<path d="M268.056 77.6496C268.15 77.7032 268.246 77.7578 268.344 77.8133C271.078 79.0229 281.842 76.4202 284.227 75.2028C286.708 73.9368 296.5 78.2449 294.26 83.4828C293.038 86.3398 288.771 86.731 284.851 86.0516C282.98 85.7275 273.272 80.6032 268.344 77.8133C268.235 77.765 268.138 77.7105 268.056 77.6496Z" fill="#FABD15"/>
<path d="M290.503 59.4929C291.572 56.9925 291.317 50.2929 290.935 47.2119C291.056 47.4482 294.074 49.4799 298.307 56.4035C303.718 65.2554 302.629 69.8314 301.643 72.5678C300.768 74.3544 297.655 76.6576 293.651 74.4132C288.646 71.6077 289.281 62.3499 290.503 59.4929Z" fill="#FABD15"/>
<path d="M302.953 80.386L300.306 83.0769L316.655 101.981L320.191 99.2824L302.953 80.386Z" fill="#FABD15"/>
</svg>
